 solid                                                                           
 facet normal -0.283297986     -0.678023875     -0.678251982    
 outer loop
 vertex  0.883085012       4.63473797E-02   4.63473797E-02
 vertex  0.879272223       4.71438095E-02   4.71438095E-02
 vertex  0.880432487       4.79816012E-02   4.58216108E-02
 endloop
 endfacet
 facet normal -0.283136904     -0.677842379     -0.678500593    
 outer loop
 vertex  0.883085012       4.63473797E-02   4.63473797E-02
 vertex  0.880432487       4.79816012E-02   4.58216108E-02
 vertex  0.887333393       4.54605296E-02   4.54605296E-02
 endloop
 endfacet
 facet normal -0.283195704     -0.678034306     -0.678284287    
 outer loop
 vertex  0.887333393       4.54605296E-02   4.54605296E-02
 vertex  0.880432487       4.79816012E-02   4.58216108E-02
 vertex  0.883686125       4.81538288E-02   4.42910418E-02
 endloop
 endfacet
 facet normal -0.283137590     -0.677986801     -0.678356111    
 outer loop
 vertex  0.887333393       4.54605296E-02   4.54605296E-02
 vertex  0.883686125       4.81538288E-02   4.42910418E-02
 vertex  0.892405272       4.44017686E-02   4.44017686E-02
 endloop
 endfacet
 facet normal -0.283158600     -0.678034008     -0.678300083    
 outer loop
 vertex  0.892405272       4.44017686E-02   4.44017686E-02
 vertex  0.883686125       4.81538288E-02   4.42910418E-02
 vertex  0.888862073       4.75437082E-02   4.27401811E-02
 endloop
 endfacet
 facet normal -0.283137113     -0.678021312     -0.678321898    
 outer loop
 vertex  0.892405272       4.44017686E-02   4.44017686E-02
 vertex  0.888862073       4.75437082E-02   4.27401811E-02
 vertex  0.898011029       4.32315692E-02   4.32315692E-02
 endloop
 endfacet
 facet normal -0.283139110     -0.678025007     -0.678317189    
 outer loop
 vertex  0.898011029       4.32315692E-02   4.32315692E-02
 vertex  0.888862073       4.75437082E-02   4.27401811E-02
 vertex  0.895649672       4.61633205E-02   4.12867218E-02
 endloop
 endfacet
 facet normal -0.283136606     -0.678024173     -0.678319097    
 outer loop
 vertex  0.898011029       4.32315692E-02   4.32315692E-02
 vertex  0.895649672       4.61633205E-02   4.12867218E-02
 vertex  0.903691888       4.20456789E-02   4.20456789E-02
 endloop
 endfacet
 facet normal -0.283121586     -0.678000510     -0.678349078    
 outer loop
 vertex  0.903691888       4.20456789E-02   4.20456789E-02
 vertex  0.895649672       4.61633205E-02   4.12867218E-02
 vertex  0.903301716       4.42210995E-02   4.00342606E-02
 endloop
 endfacet
 facet normal -0.283136815     -0.677998781     -0.678344429    
 outer loop
 vertex  0.903691888       4.20456789E-02   4.20456789E-02
 vertex  0.903301716       4.42210995E-02   4.00342606E-02
 vertex  0.908971310       4.09436114E-02   4.09436114E-02
 endloop
 endfacet
 facet normal -0.283108413     -0.677962899     -0.678392172    
 outer loop
 vertex  0.908971310       4.09436114E-02   4.09436114E-02
 vertex  0.903301716       4.42210995E-02   4.00342606E-02
 vertex  0.910699785       4.21215408E-02   3.90450694E-02
 endloop
 endfacet
 facet normal -0.283138901     -0.677937925     -0.678404391    
 outer loop
 vertex  0.908971310       4.09436114E-02   4.09436114E-02
 vertex  0.910699785       4.21215408E-02   3.90450694E-02
 vertex  0.913472474       4.00039814E-02   4.00039814E-02
 endloop
 endfacet
 facet normal -0.283089489     -0.677899778     -0.678463101    
 outer loop
 vertex  0.913472474       4.00039814E-02   4.00039814E-02
 vertex  0.910699785       4.21215408E-02   3.90450694E-02
 vertex  0.916791797       4.02865484E-02   3.83366607E-02
 endloop
 endfacet
 facet normal -0.283137113     -0.677801788     -0.678541183    
 outer loop
 vertex  0.913472474       4.00039814E-02   4.00039814E-02
 vertex  0.916791797       4.02865484E-02   3.83366607E-02
 vertex  0.917064309       3.92541811E-02   3.92541811E-02
 endloop
 endfacet
 facet normal -0.283065796     -0.677805781     -0.678566873    
 outer loop
 vertex  0.917064309       3.92541811E-02   3.92541811E-02
 vertex  0.916791797       4.02865484E-02   3.83366607E-02
 vertex  0.921090722       3.89434695E-02   3.78849208E-02
 endloop
 endfacet
 facet normal -0.283134401     -0.677507281     -0.678836405    
 outer loop
 vertex  0.917064309       3.92541811E-02   3.92541811E-02
 vertex  0.921090722       3.89434695E-02   3.78849208E-02
 vertex  0.919769585       3.86894606E-02   3.86894606E-02
 endloop
 endfacet
 facet normal -0.283035904     -0.677661598     -0.678723395    
 outer loop
 vertex  0.919769585       3.86894606E-02   3.86894606E-02
 vertex  0.921090722       3.89434695E-02   3.78849208E-02
 vertex  0.923736274       3.81005816E-02   3.76232490E-02
 endloop
 endfacet
 facet normal -0.283141702     -0.676676929     -0.679660976    
 outer loop
 vertex  0.919769585       3.86894606E-02   3.86894606E-02
 vertex  0.923736274       3.81005816E-02   3.76232490E-02
 vertex  0.921721578       3.82819586E-02   3.82819586E-02
 endloop
 endfacet
 facet normal -0.282943308     -0.677632511     -0.678791106    
 outer loop
 vertex  0.921721578       3.82819586E-02   3.82819586E-02
 vertex  0.923736274       3.81005816E-02   3.76232490E-02
 vertex  0.924780428       3.76439095E-02   3.76439095E-02
 endloop
 endfacet
 facet normal   0.00000000      0.707106829     -0.707106829    
 outer loop
 vertex  0.921721578       3.82819586E-02   3.82819586E-02
 vertex  0.924780428       3.76439095E-02   3.76439095E-02
 vertex  0.923089981       3.79963294E-02   3.79963294E-02
 endloop
 endfacet
 facet normal -0.814643204      0.297146887     -0.498056412    
 outer loop
 vertex  0.879272223       4.71438095E-02   4.71438095E-02
 vertex  0.879172981       4.75460589E-02   4.75460589E-02
 vertex  0.880362689       4.84644212E-02   4.61478904E-02
 endloop
 endfacet
 facet normal -0.800858378      0.251509011     -0.543478727    
 outer loop
 vertex  0.879272223       4.71438095E-02   4.71438095E-02
 vertex  0.880362689       4.84644212E-02   4.61478904E-02
 vertex  0.880432487       4.79816012E-02   4.58216108E-02
 endloop
 endfacet
 facet normal -0.403537810      0.471554995     -0.784087479    
 outer loop
 vertex  0.880432487       4.79816012E-02   4.58216108E-02
 vertex  0.880362689       4.84644212E-02   4.61478904E-02
 vertex  0.883644581       4.86769304E-02   4.45866510E-02
 endloop
 endfacet
 facet normal -0.403535813      0.425702691     -0.809898913    
 outer loop
 vertex  0.880432487       4.79816012E-02   4.58216108E-02
 vertex  0.883644581       4.86769304E-02   4.45866510E-02
 vertex  0.883686125       4.81538288E-02   4.42910418E-02
 endloop
 endfacet
 facet normal -0.210720599      0.468231887     -0.858111680    
 outer loop
 vertex  0.883686125       4.81538288E-02   4.42910418E-02
 vertex  0.883644581       4.86769304E-02   4.45866510E-02
 vertex  0.888814807       4.81174588E-02   4.30117697E-02
 endloop
 endfacet
 facet normal -0.218838498      0.402683794     -0.888794422    
 outer loop
 vertex  0.883686125       4.81538288E-02   4.42910418E-02
 vertex  0.888814807       4.81174588E-02   4.30117697E-02
 vertex  0.888862073       4.75437082E-02   4.27401811E-02
 endloop
 endfacet
 facet normal -0.110810399      0.417733788     -0.901786923    
 outer loop
 vertex  0.888862073       4.75437082E-02   4.27401811E-02
 vertex  0.888814807       4.81174588E-02   4.30117697E-02
 vertex  0.895601213       4.67678495E-02   4.15527001E-02
 endloop
 endfacet
 facet normal -0.115649998      0.392210901     -0.912576377    
 outer loop
 vertex  0.888862073       4.75437082E-02   4.27401811E-02
 vertex  0.895601213       4.67678495E-02   4.15527001E-02
 vertex  0.895649672       4.61633205E-02   4.12867218E-02
 endloop
 endfacet
 facet normal  -4.72528003E-02  0.399080902     -0.915697277    
 outer loop
 vertex  0.895649672       4.61633205E-02   4.12867218E-02
 vertex  0.895601213       4.67678495E-02   4.15527001E-02
 vertex  0.903260529       4.48293611E-02   4.03126106E-02
 endloop
 endfacet
 facet normal  -4.39810790E-02  0.413258910     -0.909550786    
 outer loop
 vertex  0.895649672       4.61633205E-02   4.12867218E-02
 vertex  0.903260529       4.48293611E-02   4.03126106E-02
 vertex  0.903301716       4.42210995E-02   4.00342606E-02
 endloop
 endfacet
 facet normal   7.76876579E-04  0.416169614     -0.909286678    
 outer loop
 vertex  0.903301716       4.42210995E-02   4.00342606E-02
 vertex  0.903260529       4.48293611E-02   4.03126106E-02
 vertex  0.910684109       4.27055284E-02   3.93469110E-02
 endloop
 endfacet
 facet normal   1.16122402E-02  0.459371597     -0.888168275    
 outer loop
 vertex  0.903301716       4.42210995E-02   4.00342606E-02
 vertex  0.910684109       4.27055284E-02   3.93469110E-02
 vertex  0.910699785       4.21215408E-02   3.90450694E-02
 endloop
 endfacet
 facet normal   4.23829891E-02  0.459644794     -0.887090981    
 outer loop
 vertex  0.910699785       4.21215408E-02   3.90450694E-02
 vertex  0.910684109       4.27055284E-02   3.93469110E-02
 vertex  0.916862011       4.08122800E-02   3.86610888E-02
 endloop
 endfacet
 facet normal   5.70674315E-02  0.518763483     -0.853011012    
 outer loop
 vertex  0.910699785       4.21215408E-02   3.90450694E-02
 vertex  0.916862011       4.08122800E-02   3.86610888E-02
 vertex  0.916791797       4.02865484E-02   3.83366607E-02
 endloop
 endfacet
 facet normal   8.22026506E-02  0.515399814     -0.852998078    
 outer loop
 vertex  0.916791797       4.02865484E-02   3.83366607E-02
 vertex  0.916862011       4.08122800E-02   3.86610888E-02
 vertex  0.921262801       3.93953584E-02   3.82290594E-02
 endloop
 endfacet
 facet normal   9.60644409E-02  0.579652727     -0.809181273    
 outer loop
 vertex  0.916791797       4.02865484E-02   3.83366607E-02
 vertex  0.921262801       3.93953584E-02   3.82290594E-02
 vertex  0.921090722       3.89434695E-02   3.78849208E-02
 endloop
 endfacet
 facet normal  0.117518798      0.572956979     -0.811116278    
 outer loop
 vertex  0.921090722       3.89434695E-02   3.78849208E-02
 vertex  0.921262801       3.93953584E-02   3.82290594E-02
 vertex  0.923888385       3.85122709E-02   3.79856601E-02
 endloop
 endfacet
 facet normal  0.124615997      0.629283071     -0.767120302    
 outer loop
 vertex  0.921090722       3.89434695E-02   3.78849208E-02
 vertex  0.923888385       3.85122709E-02   3.79856601E-02
 vertex  0.923736274       3.81005816E-02   3.76232490E-02
 endloop
 endfacet
 facet normal  0.289305300      0.570078194     -0.768968999    
 outer loop
 vertex  0.923736274       3.81005816E-02   3.76232490E-02
 vertex  0.923888385       3.85122709E-02   3.79856601E-02
 vertex  0.924958289       3.80325913E-02   3.80325913E-02
 endloop
 endfacet
 facet normal  0.281825304      0.610883117     -0.739862382    
 outer loop
 vertex  0.923736274       3.81005816E-02   3.76232490E-02
 vertex  0.924958289       3.80325913E-02   3.80325913E-02
 vertex  0.924780428       3.76439095E-02   3.76439095E-02
 endloop
 endfacet
 facet normal -0.781285882      0.538893580     -0.314938098    
 outer loop
 vertex  0.879172981       4.75460589E-02   4.75460589E-02
 vertex  0.879537821       4.88187112E-02   4.88187112E-02
 vertex  0.880734980       4.97461110E-02   4.74354811E-02
 endloop
 endfacet
 facet normal -0.782223403      0.539751112     -0.311119288    
 outer loop
 vertex  0.879172981       4.75460589E-02   4.75460589E-02
 vertex  0.880734980       4.97461110E-02   4.74354811E-02
 vertex  0.880362689       4.84644212E-02   4.61478904E-02
 endloop
 endfacet
 facet normal -0.335655510      0.714352012     -0.614032984    
 outer loop
 vertex  0.880362689       4.84644212E-02   4.61478904E-02
 vertex  0.880734980       4.97461110E-02   4.74354811E-02
 vertex  0.884021878       4.99988496E-02   4.59327810E-02
 endloop
 endfacet
 facet normal -0.336654902      0.717294514     -0.610042691    
 outer loop
 vertex  0.880362689       4.84644212E-02   4.61478904E-02
 vertex  0.884021878       4.99988496E-02   4.59327810E-02
 vertex  0.883644581       4.86769304E-02   4.45866510E-02
 endloop
 endfacet
 facet normal -0.126287997      0.725245416     -0.676809072    
 outer loop
 vertex  0.883644581       4.86769304E-02   4.45866510E-02
 vertex  0.884021878       4.99988496E-02   4.59327810E-02
 vertex  0.889186680       4.95024808E-02   4.44371589E-02
 endloop
 endfacet
 facet normal -0.126584098      0.727726698     -0.674084783    
 outer loop
 vertex  0.883644581       4.86769304E-02   4.45866510E-02
 vertex  0.889186680       4.95024808E-02   4.44371589E-02
 vertex  0.888814807       4.81174588E-02   4.30117697E-02
 endloop
 endfacet
 facet normal  -6.00324804E-03  0.717959583     -0.696058929    
 outer loop
 vertex  0.888814807       4.81174588E-02   4.30117697E-02
 vertex  0.889186680       4.95024808E-02   4.44371589E-02
 vertex  0.895951927       4.82292585E-02   4.30655405E-02
 endloop
 endfacet
 facet normal  -6.04907190E-03  0.719913125     -0.694037914    
 outer loop
 vertex  0.888814807       4.81174588E-02   4.30117697E-02
 vertex  0.895951927       4.82292585E-02   4.30655405E-02
 vertex  0.895601213       4.67678495E-02   4.15527001E-02
 endloop
 endfacet
 facet normal   6.67145476E-02  0.709850371     -0.701185882    
 outer loop
 vertex  0.895601213       4.67678495E-02   4.15527001E-02
 vertex  0.895951927       4.82292585E-02   4.30655405E-02
 vertex  0.903559327       4.63682115E-02   4.19052988E-02
 endloop
 endfacet
 facet normal   6.67219907E-02  0.711267829     -0.699747324    
 outer loop
 vertex  0.895601213       4.67678495E-02   4.15527001E-02
 vertex  0.903559327       4.63682115E-02   4.19052988E-02
 vertex  0.903260529       4.48293611E-02   4.03126106E-02
 endloop
 endfacet
 facet normal  0.110653497      0.704284012     -0.701241672    
 outer loop
 vertex  0.903260529       4.48293611E-02   4.03126106E-02
 vertex  0.903559327       4.63682115E-02   4.19052988E-02
 vertex  0.910895228       4.43122089E-02   4.09979597E-02
 endloop
 endfacet
 facet normal  0.110633999      0.705165088     -0.700358689    
 outer loop
 vertex  0.903260529       4.48293611E-02   4.03126106E-02
 vertex  0.910895228       4.43122089E-02   4.09979597E-02
 vertex  0.910684109       4.27055284E-02   3.93469110E-02
 endloop
 endfacet
 facet normal  0.137363404      0.701042473     -0.699764729    
 outer loop
 vertex  0.910684109       4.27055284E-02   3.93469110E-02
 vertex  0.910895228       4.43122089E-02   4.09979597E-02
 vertex  0.916973114       4.24678586E-02   4.03433293E-02
 endloop
 endfacet
 facet normal  0.137317806      0.701431811     -0.699383616    
 outer loop
 vertex  0.910684109       4.27055284E-02   3.93469110E-02
 vertex  0.916973114       4.24678586E-02   4.03433293E-02
 vertex  0.916862011       4.08122800E-02   3.86610888E-02
 endloop
 endfacet
 facet normal  0.156510398      0.698761523     -0.698023498    
 outer loop
 vertex  0.916862011       4.08122800E-02   3.86610888E-02
 vertex  0.916973114       4.24678586E-02   4.03433293E-02
 vertex  0.921290219       4.10738885E-02   3.99158709E-02
 endloop
 endfacet
 facet normal  0.156485304      0.698839426     -0.697951078    
 outer loop
 vertex  0.916862011       4.08122800E-02   3.86610888E-02
 vertex  0.921290219       4.10738885E-02   3.99158709E-02
 vertex  0.921262801       3.93953584E-02   3.82290594E-02
 endloop
 endfacet
 facet normal  0.169847906      0.697164118     -0.696501076    
 outer loop
 vertex  0.921262801       3.93953584E-02   3.82290594E-02
 vertex  0.921290219       4.10738885E-02   3.99158709E-02
 vertex  0.923865378       4.02067006E-02   3.96758392E-02
 endloop
 endfacet
 facet normal  0.169894502      0.697103322     -0.696550727    
 outer loop
 vertex  0.921262801       3.93953584E-02   3.82290594E-02
 vertex  0.923865378       4.02067006E-02   3.96758392E-02
 vertex  0.923888385       3.85122709E-02   3.79856601E-02
 endloop
 endfacet
 facet normal  0.326773793      0.669662595     -0.666911483    
 outer loop
 vertex  0.923888385       3.85122709E-02   3.79856601E-02
 vertex  0.923865378       4.02067006E-02   3.96758392E-02
 vertex  0.924952686       3.97569314E-02   3.97569314E-02
 endloop
 endfacet
 facet normal  0.328882992      0.668311775     -0.667229593    
 outer loop
 vertex  0.923888385       3.85122709E-02   3.79856601E-02
 vertex  0.924952686       3.97569314E-02   3.97569314E-02
 vertex  0.924958289       3.80325913E-02   3.80325913E-02
 endloop
 endfacet
 facet normal -0.778966308      0.540756226     -0.317481011    
 outer loop
 vertex  0.879537821       4.88187112E-02   4.88187112E-02
 vertex  0.880244672       5.12850806E-02   5.12850806E-02
 vertex  0.881452918       5.22388518E-02   4.99452017E-02
 endloop
 endfacet
 facet normal -0.780796885      0.540458679     -0.313465506    
 outer loop
 vertex  0.879537821       4.88187112E-02   4.88187112E-02
 vertex  0.881452918       5.22388518E-02   4.99452017E-02
 vertex  0.880734980       4.97461110E-02   4.74354811E-02
 endloop
 endfacet
 facet normal -0.332198888      0.715006590     -0.615149915    
 outer loop
 vertex  0.880734980       4.97461110E-02   4.74354811E-02
 vertex  0.881452918       5.22388518E-02   4.99452017E-02
 vertex  0.884740591       5.25729209E-02   4.85580489E-02
 endloop
 endfacet
 facet normal -0.334673613      0.717037380     -0.611433625    
 outer loop
 vertex  0.880734980       4.97461110E-02   4.74354811E-02
 vertex  0.884740591       5.25729209E-02   4.85580489E-02
 vertex  0.884021878       4.99988496E-02   4.59327810E-02
 endloop
 endfacet
 facet normal -0.124247298      0.725294113     -0.677134514    
 outer loop
 vertex  0.884021878       4.99988496E-02   4.59327810E-02
 vertex  0.884740591       5.25729209E-02   4.85580489E-02
 vertex  0.889893293       5.22158891E-02   4.72301506E-02
 endloop
 endfacet
 facet normal -0.125508800      0.727261484     -0.674787581    
 outer loop
 vertex  0.884021878       4.99988496E-02   4.59327810E-02
 vertex  0.889893293       5.22158891E-02   4.72301506E-02
 vertex  0.889186680       4.95024808E-02   4.44371589E-02
 endloop
 endfacet
 facet normal  -4.65517584E-03  0.717833102     -0.696199715    
 outer loop
 vertex  0.889186680       4.95024808E-02   4.44371589E-02
 vertex  0.889893293       5.22158891E-02   4.72301506E-02
 vertex  0.896618187       5.11185303E-02   4.60537411E-02
 endloop
 endfacet
 facet normal  -5.39248716E-03  0.719497502     -0.694474101    
 outer loop
 vertex  0.889186680       4.95024808E-02   4.44371589E-02
 vertex  0.896618187       5.11185303E-02   4.60537411E-02
 vertex  0.895951927       4.82292585E-02   4.30655405E-02
 endloop
 endfacet
 facet normal   6.76733330E-02  0.709676087     -0.701270282    
 outer loop
 vertex  0.895951927       4.82292585E-02   4.30655405E-02
 vertex  0.896618187       5.11185303E-02   4.60537411E-02
 vertex  0.904125214       4.94406782E-02   4.50802110E-02
 endloop
 endfacet
 facet normal   6.71692118E-02  0.710972488     -0.700004578    
 outer loop
 vertex  0.895951927       4.82292585E-02   4.30655405E-02
 vertex  0.904125214       4.94406782E-02   4.50802110E-02
 vertex  0.903559327       4.63682115E-02   4.19052988E-02
 endloop
 endfacet
 facet normal  0.111281298      0.704155684     -0.701271176    
 outer loop
 vertex  0.903559327       4.63682115E-02   4.19052988E-02
 vertex  0.904125214       4.94406782E-02   4.50802110E-02
 vertex  0.911288083       4.75515388E-02   4.43199500E-02
 endloop
 endfacet
 facet normal  0.110928103      0.704949319     -0.700529397    
 outer loop
 vertex  0.903559327       4.63682115E-02   4.19052988E-02
 vertex  0.911288083       4.75515388E-02   4.43199500E-02
 vertex  0.910895228       4.43122089E-02   4.09979597E-02
 endloop
 endfacet
 facet normal  0.137700304      0.700947285     -0.699793875    
 outer loop
 vertex  0.910895228       4.43122089E-02   4.09979597E-02
 vertex  0.911288083       4.75515388E-02   4.43199500E-02
 vertex  0.917167008       4.58413586E-02   4.37637419E-02
 endloop
 endfacet
 facet normal  0.137474105      0.701305807     -0.699479103    
 outer loop
 vertex  0.910895228       4.43122089E-02   4.09979597E-02
 vertex  0.917167008       4.58413586E-02   4.37637419E-02
 vertex  0.916973114       4.24678586E-02   4.03433293E-02
 endloop
 endfacet
 facet normal  0.156576797      0.698739529     -0.698030710    
 outer loop
 vertex  0.916973114       4.24678586E-02   4.03433293E-02
 vertex  0.917167008       4.58413586E-02   4.37637419E-02
 vertex  0.921329618       4.45417687E-02   4.33965698E-02
 endloop
 endfacet
 facet normal  0.156523496      0.698791921     -0.697990179    
 outer loop
 vertex  0.916973114       4.24678586E-02   4.03433293E-02
 vertex  0.921329618       4.45417687E-02   4.33965698E-02
 vertex  0.921290219       4.10738885E-02   3.99158709E-02
 endloop
 endfacet
 facet normal  0.169769794      0.697165012     -0.696519315    
 outer loop
 vertex  0.921290219       4.10738885E-02   3.99158709E-02
 vertex  0.921329618       4.45417687E-02   4.33965698E-02
 vertex  0.923844218       4.37323414E-02   4.31992896E-02
 endloop
 endfacet
 facet normal  0.169832706      0.697129488     -0.696539521    
 outer loop
 vertex  0.921290219       4.10738885E-02   3.99158709E-02
 vertex  0.923844218       4.37323414E-02   4.31992896E-02
 vertex  0.923865378       4.02067006E-02   3.96758392E-02
 endloop
 endfacet
 facet normal  0.325237304      0.669434428     -0.667891026    
 outer loop
 vertex  0.923865378       4.02067006E-02   3.96758392E-02
 vertex  0.923844218       4.37323414E-02   4.31992896E-02
 vertex  0.924940884       4.32985500E-02   4.32985500E-02
 endloop
 endfacet
 facet normal  0.326521605      0.668891072     -0.667808592    
 outer loop
 vertex  0.923865378       4.02067006E-02   3.96758392E-02
 vertex  0.924940884       4.32985500E-02   4.32985500E-02
 vertex  0.924952686       3.97569314E-02   3.97569314E-02
 endloop
 endfacet
 facet normal -0.775140285      0.543802083     -0.321615905    
 outer loop
 vertex  0.880244672       5.12850806E-02   5.12850806E-02
 vertex  0.881299794       5.49659915E-02   5.49659915E-02
 vertex  0.882530093       5.59689812E-02   5.36967292E-02
 endloop
 endfacet
 facet normal -0.778464913      0.542443871     -0.315827489    
 outer loop
 vertex  0.880244672       5.12850806E-02   5.12850806E-02
 vertex  0.882530093       5.59689812E-02   5.36967292E-02
 vertex  0.881452918       5.22388518E-02   4.99452017E-02
 endloop
 endfacet
 facet normal -0.326894611      0.715433180     -0.617491007    
 outer loop
 vertex  0.881452918       5.22388518E-02   4.99452017E-02
 vertex  0.882530093       5.59689812E-02   5.36967292E-02
 vertex  0.885824621       5.64338416E-02   5.24912402E-02
 endloop
 endfacet
 facet normal -0.331453890      0.717349410     -0.612819791    
 outer loop
 vertex  0.881452918       5.22388518E-02   4.99452017E-02
 vertex  0.885824621       5.64338416E-02   5.24912402E-02
 vertex  0.884740591       5.25729209E-02   4.85580489E-02
 endloop
 endfacet
 facet normal -0.121090598      0.724860728     -0.678169608    
 outer loop
 vertex  0.884740591       5.25729209E-02   4.85580489E-02
 vertex  0.885824621       5.64338416E-02   5.24912402E-02
 vertex  0.890964627       5.62984496E-02   5.14287502E-02
 endloop
 endfacet
 facet normal -0.123674698      0.727027118     -0.675378501    
 outer loop
 vertex  0.884740591       5.25729209E-02   4.85580489E-02
 vertex  0.890964627       5.62984496E-02   5.14287502E-02
 vertex  0.889893293       5.22158891E-02   4.72301506E-02
 endloop
 endfacet
 facet normal  -2.45779799E-03  0.717254877     -0.696806610    
 outer loop
 vertex  0.889893293       5.22158891E-02   4.72301506E-02
 vertex  0.890964627       5.62984496E-02   5.14287502E-02
 vertex  0.897639513       5.54829091E-02   5.05657308E-02
 endloop
 endfacet
 facet normal  -4.17444902E-03  0.719232500     -0.694756925    
 outer loop
 vertex  0.889893293       5.22158891E-02   4.72301506E-02
 vertex  0.897639513       5.54829091E-02   5.05657308E-02
 vertex  0.896618187       5.11185303E-02   4.60537411E-02
 endloop
 endfacet
 facet normal   6.93384781E-02  0.709147811     -0.701642096    
 outer loop
 vertex  0.896618187       5.11185303E-02   4.60537411E-02
 vertex  0.897639513       5.54829091E-02   5.05657308E-02
 vertex  0.905011773       5.40962406E-02   4.98927794E-02
 endloop
 endfacet
 facet normal   6.80670887E-02  0.710771620     -0.700121880    
 outer loop
 vertex  0.896618187       5.11185303E-02   4.60537411E-02
 vertex  0.905011773       5.40962406E-02   4.98927794E-02
 vertex  0.904125214       4.94406782E-02   4.50802110E-02
 endloop
 endfacet
 facet normal  0.112499803      0.703734517     -0.701499522    
 outer loop
 vertex  0.904125214       4.94406782E-02   4.50802110E-02
 vertex  0.905011773       5.40962406E-02   4.98927794E-02
 vertex  0.911935210       5.24738692E-02   4.93755601E-02
 endloop
 endfacet
 facet normal  0.111540496      0.704843581     -0.700538516    
 outer loop
 vertex  0.904125214       4.94406782E-02   4.50802110E-02
 vertex  0.911935210       5.24738692E-02   4.93755601E-02
 vertex  0.911288083       4.75515388E-02   4.43199500E-02
 endloop
 endfacet
 facet normal  0.138518199      0.700661123     -0.699919224    
 outer loop
 vertex  0.911288083       4.75515388E-02   4.43199500E-02
 vertex  0.911935210       5.24738692E-02   4.93755601E-02
 vertex  0.917530894       5.09903282E-02   4.89978604E-02
 endloop
 endfacet
 facet normal  0.137827396      0.701270282     -0.699445128    
 outer loop
 vertex  0.911288083       4.75515388E-02   4.43199500E-02
 vertex  0.917530894       5.09903282E-02   4.89978604E-02
 vertex  0.917167008       4.58413586E-02   4.37637419E-02
 endloop
 endfacet
 facet normal  0.157017604      0.698559105     -0.698112190    
 outer loop
 vertex  0.917167008       4.58413586E-02   4.37637419E-02
 vertex  0.917530894       5.09903282E-02   4.89978604E-02
 vertex  0.921458423       4.98626009E-02   4.87527698E-02
 endloop
 endfacet
 facet normal  0.156604499      0.698807120     -0.697956800    
 outer loop
 vertex  0.917167008       4.58413586E-02   4.37637419E-02
 vertex  0.921458423       4.98626009E-02   4.87527698E-02
 vertex  0.921329618       4.45417687E-02   4.33965698E-02
 endloop
 endfacet
 facet normal  0.169950798      0.697079182     -0.696561098    
 outer loop
 vertex  0.921329618       4.45417687E-02   4.33965698E-02
 vertex  0.921458423       4.98626009E-02   4.87527698E-02
 vertex  0.923846185       4.91541103E-02   4.86263409E-02
 endloop
 endfacet
 facet normal  0.169764102      0.697151124     -0.696534693    
 outer loop
 vertex  0.921329618       4.45417687E-02   4.33965698E-02
 vertex  0.923846185       4.91541103E-02   4.86263409E-02
 vertex  0.923844218       4.37323414E-02   4.31992896E-02
 endloop
 endfacet
 facet normal  0.327573687      0.668358028     -0.667827129    
 outer loop
 vertex  0.923844218       4.37323414E-02   4.31992896E-02
 vertex  0.923846185       4.91541103E-02   4.86263409E-02
 vertex  0.924922824       4.87463586E-02   4.87463586E-02
 endloop
 endfacet
 facet normal  0.325174212      0.669218302     -0.668138087    
 outer loop
 vertex  0.923844218       4.37323414E-02   4.31992896E-02
 vertex  0.924922824       4.87463586E-02   4.87463586E-02
 vertex  0.924940884       4.32985500E-02   4.32985500E-02
 endloop
 endfacet
 facet normal -0.770456016      0.547465801     -0.326617211    
 outer loop
 vertex  0.881299794       5.49659915E-02   5.49659915E-02
 vertex  0.882553875       5.93412519E-02   5.93412519E-02
 vertex  0.883816183       6.04186505E-02   5.81695512E-02
 endloop
 endfacet
 facet normal -0.774695516      0.545460701     -0.319874108    
 outer loop
 vertex  0.881299794       5.49659915E-02   5.49659915E-02
 vertex  0.883816183       6.04186505E-02   5.81695512E-02
 vertex  0.882530093       5.59689812E-02   5.36967292E-02
 endloop
 endfacet
 facet normal -0.320378512      0.716034412     -0.620203376    
 outer loop
 vertex  0.882530093       5.59689812E-02   5.36967292E-02
 vertex  0.883816183       6.04186505E-02   5.81695512E-02
 vertex  0.887131810       6.10730015E-02   5.72123118E-02
 endloop
 endfacet
 facet normal -0.326325595      0.717822075     -0.615014672    
 outer loop
 vertex  0.882530093       5.59689812E-02   5.36967292E-02
 vertex  0.887131810       6.10730015E-02   5.72123118E-02
 vertex  0.885824621       5.64338416E-02   5.24912402E-02
 endloop
 endfacet
 facet normal -0.116831496      0.724363089     -0.679447174    
 outer loop
 vertex  0.885824621       5.64338416E-02   5.24912402E-02
 vertex  0.887131810       6.10730015E-02   5.72123118E-02
 vertex  0.892271399       6.12407215E-02   5.65073490E-02
 endloop
 endfacet
 facet normal -0.120635897      0.726762712     -0.676212192    
 outer loop
 vertex  0.885824621       5.64338416E-02   5.24912402E-02
 vertex  0.892271399       6.12407215E-02   5.65073490E-02
 vertex  0.890964627       5.62984496E-02   5.14287502E-02
 endloop
 endfacet
 facet normal   7.02761114E-04  0.716570079     -0.697514713    
 outer loop
 vertex  0.890964627       5.62984496E-02   5.14287502E-02
 vertex  0.892271399       6.12407215E-02   5.65073490E-02
 vertex  0.898895979       6.07793294E-02   5.60400300E-02
 endloop
 endfacet
 facet normal  -2.03279592E-03  0.718918383     -0.695091486    
 outer loop
 vertex  0.890964627       5.62984496E-02   5.14287502E-02
 vertex  0.898895979       6.07793294E-02   5.60400300E-02
 vertex  0.897639513       5.54829091E-02   5.05657308E-02
 endloop
 endfacet
 facet normal   7.18487427E-02  0.708537519     -0.702005982    
 outer loop
 vertex  0.897639513       5.54829091E-02   5.05657308E-02
 vertex  0.898895979       6.07793294E-02   5.60400300E-02
 vertex  0.906111479       5.97279593E-02   5.57173714E-02
 endloop
 endfacet
 facet normal   6.97346777E-02  0.710547328     -0.700185478    
 outer loop
 vertex  0.897639513       5.54829091E-02   5.05657308E-02
 vertex  0.906111479       5.97279593E-02   5.57173714E-02
 vertex  0.905011773       5.40962406E-02   4.98927794E-02
 endloop
 endfacet
 facet normal  0.114378102      0.703312278     -0.701619208    
 outer loop
 vertex  0.905011773       5.40962406E-02   4.98927794E-02
 vertex  0.906111479       5.97279593E-02   5.57173714E-02
 vertex  0.912752986       5.84018715E-02   5.54707795E-02
 endloop
 endfacet
 facet normal  0.112799101      0.704690218     -0.700491428    
 outer loop
 vertex  0.905011773       5.40962406E-02   4.98927794E-02
 vertex  0.912752986       5.84018715E-02   5.54707795E-02
 vertex  0.911935210       5.24738692E-02   4.93755601E-02
 endloop
 endfacet
 facet normal  0.139855593      0.700382411     -0.699932098    
 outer loop
 vertex  0.911935210       5.24738692E-02   4.93755601E-02
 vertex  0.912752986       5.84018715E-02   5.54707795E-02
 vertex  0.918011785       5.71726188E-02   5.52915111E-02
 endloop
 endfacet
 facet normal  0.138692096      0.701176822     -0.699368000    
 outer loop
 vertex  0.911935210       5.24738692E-02   4.93755601E-02
 vertex  0.918011785       5.71726188E-02   5.52915111E-02
 vertex  0.917530894       5.09903282E-02   4.89978604E-02
 endloop
 endfacet
 facet normal  0.157853007      0.698389173     -0.698093772    
 outer loop
 vertex  0.917530894       5.09903282E-02   4.89978604E-02
 vertex  0.918011785       5.71726188E-02   5.52915111E-02
 vertex  0.921647429       5.62419817E-02   5.51825613E-02
 endloop
 endfacet
 facet normal  0.157087997      0.698757827     -0.697897613    
 outer loop
 vertex  0.917530894       5.09903282E-02   4.89978604E-02
 vertex  0.921647429       5.62419817E-02   5.51825613E-02
 vertex  0.921458423       4.98626009E-02   4.87527698E-02
 endloop
 endfacet
 facet normal  0.170374393      0.696996272     -0.696540475    
 outer loop
 vertex  0.921458423       4.98626009E-02   4.87527698E-02
 vertex  0.921647429       5.62419817E-02   5.51825613E-02
 vertex  0.923862278       5.56534491E-02   5.51354215E-02
 endloop
 endfacet
 facet normal  0.169968307      0.697128475     -0.696507514    
 outer loop
 vertex  0.921458423       4.98626009E-02   4.87527698E-02
 vertex  0.923862278       5.56534491E-02   5.51354215E-02
 vertex  0.923846185       4.91541103E-02   4.86263409E-02
 endloop
 endfacet
 facet normal  0.332580894      0.666940928     -0.666768193    
 outer loop
 vertex  0.923846185       4.91541103E-02   4.86263409E-02
 vertex  0.923862278       5.56534491E-02   5.51354215E-02
 vertex  0.924901128       5.52797802E-02   5.52797802E-02
 endloop
 endfacet
 facet normal  0.327640206      0.668620706     -0.667531490    
 outer loop
 vertex  0.923846185       4.91541103E-02   4.86263409E-02
 vertex  0.924901128       5.52797802E-02   5.52797802E-02
 vertex  0.924922824       4.87463586E-02   4.87463586E-02
 endloop
 endfacet
 facet normal -0.765941799      0.550927699     -0.331378609    
 outer loop
 vertex  0.882553875       5.93412519E-02   5.93412519E-02
 vertex  0.883734226       6.34588227E-02   6.34588227E-02
 vertex  0.885037720       6.46446571E-02   6.24175407E-02
 endloop
 endfacet
 facet normal -0.770104289      0.549050391     -0.324781388    
 outer loop
 vertex  0.882553875       5.93412519E-02   5.93412519E-02
 vertex  0.885037720       6.46446571E-02   6.24175407E-02
 vertex  0.883816183       6.04186505E-02   5.81695512E-02
 endloop
 endfacet
 facet normal -0.314255804      0.716667712     -0.622600019    
 outer loop
 vertex  0.883816183       6.04186505E-02   5.81695512E-02
 vertex  0.885037720       6.46446571E-02   6.24175407E-02
 vertex  0.888397574       6.55708835E-02   6.17877804E-02
 endloop
 endfacet
 facet normal -0.320098996      0.718376279     -0.617634416    
 outer loop
 vertex  0.883816183       6.04186505E-02   5.81695512E-02
 vertex  0.888397574       6.55708835E-02   6.17877804E-02
 vertex  0.887131810       6.10730015E-02   5.72123118E-02
 endloop
 endfacet
 facet normal -0.112397298      0.723977983     -0.680604696    
 outer loop
 vertex  0.887131810       6.10730015E-02   5.72123118E-02
 vertex  0.888397574       6.55708835E-02   6.17877804E-02
 vertex  0.893557072       6.61049187E-02   6.15037903E-02
 endloop
 endfacet
 facet normal -0.116596900      0.726468086     -0.677236617    
 outer loop
 vertex  0.887131810       6.10730015E-02   5.72123118E-02
 vertex  0.893557072       6.61049187E-02   6.15037903E-02
 vertex  0.892271399       6.12407215E-02   5.65073490E-02
 endloop
 endfacet
 facet normal   4.28927084E-03  0.715966582     -0.698121309    
 outer loop
 vertex  0.892271399       6.12407215E-02   5.65073490E-02
 vertex  0.893557072       6.61049187E-02   6.15037903E-02
 vertex  0.900130093       6.59637228E-02   6.13993704E-02
 endloop
 endfacet
 facet normal   9.95324226E-04  0.718625426     -0.695396721    
 outer loop
 vertex  0.892271399       6.12407215E-02   5.65073490E-02
 vertex  0.900130093       6.59637228E-02   6.13993704E-02
 vertex  0.898895979       6.07793294E-02   5.60400300E-02
 endloop
 endfacet
 facet normal   7.46445507E-02  0.708090782     -0.702164888    
 outer loop
 vertex  0.898895979       6.07793294E-02   5.60400300E-02
 vertex  0.900130093       6.59637228E-02   6.13993704E-02
 vertex  0.907175481       6.51591793E-02   6.13370016E-02
 endloop
 endfacet
 facet normal   7.21902102E-02  0.710317373     -0.700169683    
 outer loop
 vertex  0.898895979       6.07793294E-02   5.60400300E-02
 vertex  0.907175481       6.51591793E-02   6.13370016E-02
 vertex  0.906111479       5.97279593E-02   5.57173714E-02
 endloop
 endfacet
 facet normal  0.116370298      0.703072309     -0.701532125    
 outer loop
 vertex  0.906111479       5.97279593E-02   5.57173714E-02
 vertex  0.907175481       6.51591793E-02   6.13370016E-02
 vertex  0.913527787       6.40413016E-02   6.12703897E-02
 endloop
 endfacet
 facet normal  0.114663601      0.704510212     -0.700369716    
 outer loop
 vertex  0.906111479       5.97279593E-02   5.57173714E-02
 vertex  0.913527787       6.40413016E-02   6.12703897E-02
 vertex  0.912752986       5.84018715E-02   5.54707795E-02
 endloop
 endfacet
 facet normal  0.141213804      0.700259089     -0.699782729    
 outer loop
 vertex  0.912752986       5.84018715E-02   5.54707795E-02
 vertex  0.913527787       6.40413016E-02   6.12703897E-02
 vertex  0.918459415       6.29894435E-02   6.12130016E-02
 endloop
 endfacet
 facet normal  0.140033603      0.701042295     -0.699235499    
 outer loop
 vertex  0.912752986       5.84018715E-02   5.54707795E-02
 vertex  0.918459415       6.29894435E-02   6.12130016E-02
 vertex  0.918011785       5.71726188E-02   5.52915111E-02
 endloop
 endfacet
 facet normal  0.158666402      0.698324621     -0.697974086    
 outer loop
 vertex  0.918011785       5.71726188E-02   5.52915111E-02
 vertex  0.918459415       6.29894435E-02   6.12130016E-02
 vertex  0.921824515       6.21943995E-02   6.11825213E-02
 endloop
 endfacet
 facet normal  0.157933801      0.698670030     -0.697794497    
 outer loop
 vertex  0.918011785       5.71726188E-02   5.52915111E-02
 vertex  0.921824515       6.21943995E-02   6.11825213E-02
 vertex  0.921647429       5.62419817E-02   5.51825613E-02
 endloop
 endfacet
 facet normal  0.170751497      0.696964085     -0.696480393    
 outer loop
 vertex  0.921647429       5.62419817E-02   5.51825613E-02
 vertex  0.921824515       6.21943995E-02   6.11825213E-02
 vertex  0.923879921       6.16892502E-02   6.11809306E-02
 endloop
 endfacet
 facet normal  0.170398101      0.697078288     -0.696452618    
 outer loop
 vertex  0.921647429       5.62419817E-02   5.51825613E-02
 vertex  0.923879921       6.16892502E-02   6.11809306E-02
 vertex  0.923862278       5.56534491E-02   5.51354215E-02
 endloop
 endfacet
 facet normal  0.337962210      0.665545583     -0.665455222    
 outer loop
 vertex  0.923862278       5.56534491E-02   5.51354215E-02
 vertex  0.923879921       6.16892502E-02   6.11809306E-02
 vertex  0.924880922       6.13399707E-02   6.13399707E-02
 endloop
 endfacet
 facet normal  0.332673013      0.667387486     -0.666275084    
 outer loop
 vertex  0.923862278       5.56534491E-02   5.51354215E-02
 vertex  0.924880922       6.13399707E-02   6.13399707E-02
 vertex  0.924901128       5.52797802E-02   5.52797802E-02
 endloop
 endfacet
 facet normal -0.762490511      0.553533375     -0.334976107    
 outer loop
 vertex  0.883734226       6.34588227E-02   6.34588227E-02
 vertex  0.884628475       6.65788725E-02   6.65788725E-02
 vertex  0.885993183       6.79546520E-02   6.57460317E-02
 endloop
 endfacet
 facet normal -0.765728474      0.552362800     -0.329477310    
 outer loop
 vertex  0.883734226       6.34588227E-02   6.34588227E-02
 vertex  0.885993183       6.79546520E-02   6.57460317E-02
 vertex  0.885037720       6.46446571E-02   6.24175407E-02
 endloop
 endfacet
 facet normal -0.309724599      0.717177510     -0.624281287    
 outer loop
 vertex  0.885037720       6.46446571E-02   6.24175407E-02
 vertex  0.885993183       6.79546520E-02   6.57460317E-02
 vertex  0.889431477       6.92915767E-02   6.55760095E-02
 endloop
 endfacet
 facet normal -0.314368486      0.718751192     -0.620136380    
 outer loop
 vertex  0.885037720       6.46446571E-02   6.24175407E-02
 vertex  0.889431477       6.92915767E-02   6.55760095E-02
 vertex  0.888397574       6.55708835E-02   6.17877804E-02
 endloop
 endfacet
 facet normal -0.108890697      0.723891377     -0.681266487    
 outer loop
 vertex  0.888397574       6.55708835E-02   6.17877804E-02
 vertex  0.889431477       6.92915767E-02   6.55760095E-02
 vertex  0.894607484       7.01135024E-02   6.56220466E-02
 endloop
 endfacet
 facet normal -0.112496898      0.726224780     -0.678190291    
 outer loop
 vertex  0.888397574       6.55708835E-02   6.17877804E-02
 vertex  0.894607484       7.01135024E-02   6.56220466E-02
 vertex  0.893557072       6.61049187E-02   6.15037903E-02
 endloop
 endfacet
 facet normal   7.44443806E-03  0.715615571     -0.698454618    
 outer loop
 vertex  0.893557072       6.61049187E-02   6.15037903E-02
 vertex  0.894607484       7.01135024E-02   6.56220466E-02
 vertex  0.901114821       7.00909868E-02   6.56683519E-02
 endloop
 endfacet
 facet normal   4.38235886E-03  0.718427002     -0.695588589    
 outer loop
 vertex  0.893557072       6.61049187E-02   6.15037903E-02
 vertex  0.901114821       7.00909868E-02   6.56683519E-02
 vertex  0.900130093       6.59637228E-02   6.13993704E-02
 endloop
 endfacet
 facet normal   7.70315677E-02  0.707864583     -0.702135086    
 outer loop
 vertex  0.900130093       6.59637228E-02   6.13993704E-02
 vertex  0.901114821       7.00909868E-02   6.56683519E-02
 vertex  0.907998681       6.93587884E-02   6.56854063E-02
 endloop
 endfacet
 facet normal   7.48999417E-02  0.710162699     -0.700042129    
 outer loop
 vertex  0.900130093       6.59637228E-02   6.13993704E-02
 vertex  0.907998681       6.93587884E-02   6.56854063E-02
 vertex  0.907175481       6.51591793E-02   6.13370016E-02
 endloop
 endfacet
 facet normal  0.117915504      0.703039885     -0.701306522    
 outer loop
 vertex  0.907175481       6.51591793E-02   6.13370016E-02
 vertex  0.907998681       6.93587884E-02   6.56854063E-02
 vertex  0.914101303       6.83217421E-02   6.56718686E-02
 endloop
 endfacet
 facet normal  0.116612099      0.704366684     -0.700192213    
 outer loop
 vertex  0.907175481       6.51591793E-02   6.13370016E-02
 vertex  0.914101303       6.83217421E-02   6.56718686E-02
 vertex  0.913527787       6.40413016E-02   6.12703897E-02
 endloop
 endfacet
 facet normal  0.142128393      0.700297117     -0.699559510    
 outer loop
 vertex  0.913527787       6.40413016E-02   6.12703897E-02
 vertex  0.914101303       6.83217421E-02   6.56718686E-02
 vertex  0.918759882       6.73487931E-02   6.56443834E-02
 endloop
 endfacet
 facet normal  0.141360193      0.700908422     -0.699102819    
 outer loop
 vertex  0.913527787       6.40413016E-02   6.12703897E-02
 vertex  0.918759882       6.73487931E-02   6.56443834E-02
 vertex  0.918459415       6.29894435E-02   6.12130016E-02
 endloop
 endfacet
 facet normal  0.159076899      0.698383987     -0.697821200    
 outer loop
 vertex  0.918459415       6.29894435E-02   6.12130016E-02
 vertex  0.918759882       6.73487931E-02   6.56443834E-02
 vertex  0.921923816       6.66006580E-02   6.56168908E-02
 endloop
 endfacet
 facet normal  0.158728600      0.698577881     -0.697706282    
 outer loop
 vertex  0.918459415       6.29894435E-02   6.12130016E-02
 vertex  0.921923816       6.66006580E-02   6.56168908E-02
 vertex  0.921824515       6.21943995E-02   6.11825213E-02
 endloop
 endfacet
 facet normal  0.170831501      0.697007716     -0.696417212    
 outer loop
 vertex  0.921824515       6.21943995E-02   6.11825213E-02
 vertex  0.921923816       6.66006580E-02   6.56168908E-02
 vertex  0.923882127       6.61107898E-02   6.56069815E-02
 endloop
 endfacet
 facet normal  0.170768097      0.697031617     -0.696408808    
 outer loop
 vertex  0.921824515       6.21943995E-02   6.11825213E-02
 vertex  0.923882127       6.61107898E-02   6.56069815E-02
 vertex  0.923879921       6.16892502E-02   6.11809306E-02
 endloop
 endfacet
 facet normal  0.340491802      0.665105879     -0.664604723    
 outer loop
 vertex  0.923879921       6.16892502E-02   6.11809306E-02
 vertex  0.923882127       6.61107898E-02   6.56069815E-02
 vertex  0.924866021       6.57614693E-02   6.57614693E-02
 endloop
 endfacet
 facet normal  0.338049710      0.666043520     -0.664912403    
 outer loop
 vertex  0.923879921       6.16892502E-02   6.11809306E-02
 vertex  0.924866021       6.57614693E-02   6.57614693E-02
 vertex  0.924880922       6.13399707E-02   6.13399707E-02
 endloop
 endfacet
 facet normal -0.740541399      0.569310129     -0.357049704    
 outer loop
 vertex  0.884628475       6.65788725E-02   6.65788725E-02
 vertex  0.885178387       6.84973821E-02   6.84973821E-02
 vertex  0.886683822       7.02812970E-02   6.82196468E-02
 endloop
 endfacet
 facet normal -0.762332499      0.563911796     -0.317573011    
 outer loop
 vertex  0.884628475       6.65788725E-02   6.65788725E-02
 vertex  0.886683822       7.02812970E-02   6.82196468E-02
 vertex  0.885993183       6.79546520E-02   6.57460317E-02
 endloop
 endfacet
 facet normal  -8.54800418E-02  0.737549484     -0.669861019    
 outer loop
 vertex  0.885993183       6.79546520E-02   6.57460317E-02
 vertex  0.886683822       7.02812970E-02   6.82196468E-02
 vertex  0.890296400       7.09654018E-02   6.85118735E-02
 endloop
 endfacet
 facet normal -0.351089686      0.854175389     -0.383562803    
 outer loop
 vertex  0.885993183       6.79546520E-02   6.57460317E-02
 vertex  0.890296400       7.09654018E-02   6.85118735E-02
 vertex  0.889431477       6.92915767E-02   6.55760095E-02
 endloop
 endfacet
 facet normal  -4.71325405E-03  0.869316280     -0.494233698    
 outer loop
 vertex  0.889431477       6.92915767E-02   6.55760095E-02
 vertex  0.890296400       7.09654018E-02   6.85118735E-02
 vertex  0.895338416       7.10685477E-02   6.86452165E-02
 endloop
 endfacet
 facet normal -0.148926601      0.952689588     -0.264959306    
 outer loop
 vertex  0.889431477       6.92915767E-02   6.55760095E-02
 vertex  0.895338416       7.10685477E-02   6.86452165E-02
 vertex  0.894607484       7.01135024E-02   6.56220466E-02
 endloop
 endfacet
 facet normal   6.04948821E-03  0.953111589     -0.302558690    
 outer loop
 vertex  0.894607484       7.01135024E-02   6.56220466E-02
 vertex  0.895338416       7.10685477E-02   6.86452165E-02
 vertex  0.901656330       7.10318834E-02   6.86560497E-02
 endloop
 endfacet
 facet normal   5.44184679E-03  0.953522921     -0.301271409    
 outer loop
 vertex  0.894607484       7.01135024E-02   6.56220466E-02
 vertex  0.901656330       7.10318834E-02   6.86560497E-02
 vertex  0.901114821       7.00909868E-02   6.56683519E-02
 endloop
 endfacet
 facet normal   1.62554905E-02  0.952846110     -0.303018212    
 outer loop
 vertex  0.901114821       7.00909868E-02   6.56683519E-02
 vertex  0.901656330       7.10318834E-02   6.86560497E-02
 vertex  0.908408284       7.08884671E-02   6.85672984E-02
 endloop
 endfacet
 facet normal   9.41195637E-02  0.873761177     -0.477161199    
 outer loop
 vertex  0.901114821       7.00909868E-02   6.56683519E-02
 vertex  0.908408284       7.08884671E-02   6.85672984E-02
 vertex  0.907998681       6.93587884E-02   6.56854063E-02
 endloop
 endfacet
 facet normal   3.03802807E-02  0.881081581     -0.471987486    
 outer loop
 vertex  0.907998681       6.93587884E-02   6.56854063E-02
 vertex  0.908408284       7.08884671E-02   6.85672984E-02
 vertex  0.914412379       7.05945119E-02   6.84050173E-02
 endloop
 endfacet
 facet normal  0.126963407      0.755518198     -0.642707229    
 outer loop
 vertex  0.907998681       6.93587884E-02   6.56854063E-02
 vertex  0.914412379       7.05945119E-02   6.84050173E-02
 vertex  0.914101303       6.83217421E-02   6.56718686E-02
 endloop
 endfacet
 facet normal   9.41165984E-02  0.760186970     -0.642851293    
 outer loop
 vertex  0.914101303       6.83217421E-02   6.56718686E-02
 vertex  0.914412379       7.05945119E-02   6.84050173E-02
 vertex  0.918919981       6.99379370E-02   6.82885423E-02
 endloop
 endfacet
 facet normal  0.142679498      0.702859879     -0.696871996    
 outer loop
 vertex  0.914101303       6.83217421E-02   6.56718686E-02
 vertex  0.918919981       6.99379370E-02   6.82885423E-02
 vertex  0.918759882       6.73487931E-02   6.56443834E-02
 endloop
 endfacet
 facet normal  0.156039000      0.701011121     -0.695870221    
 outer loop
 vertex  0.918759882       6.73487931E-02   6.56443834E-02
 vertex  0.918919981       6.99379370E-02   6.82885423E-02
 vertex  0.921912014       6.92321137E-02   6.82484135E-02
 endloop
 endfacet
 facet normal  0.159097403      0.698467612     -0.697732687    
 outer loop
 vertex  0.918759882       6.73487931E-02   6.56443834E-02
 vertex  0.921912014       6.92321137E-02   6.82484135E-02
 vertex  0.921923816       6.66006580E-02   6.56168908E-02
 endloop
 endfacet
 facet normal  0.170497805      0.697146297     -0.696360171    
 outer loop
 vertex  0.921923816       6.66006580E-02   6.56168908E-02
 vertex  0.921912014       6.92321137E-02   6.82484135E-02
 vertex  0.923815906       6.87169135E-02   6.81987926E-02
 endloop
 endfacet
 facet normal  0.170822397      0.696972013     -0.696455181    
 outer loop
 vertex  0.921923816       6.66006580E-02   6.56168908E-02
 vertex  0.923815906       6.87169135E-02   6.81987926E-02
 vertex  0.923882127       6.61107898E-02   6.56069815E-02
 endloop
 endfacet
 facet normal  0.332429796      0.669288576     -0.664487183    
 outer loop
 vertex  0.923882127       6.61107898E-02   6.56069815E-02
 vertex  0.923815906       6.87169135E-02   6.81987926E-02
 vertex  0.924857497       6.83066994E-02   6.83066994E-02
 endloop
 endfacet
 facet normal  0.340548098      0.665413320     -0.664268076    
 outer loop
 vertex  0.923882127       6.61107898E-02   6.56069815E-02
 vertex  0.924857497       6.83066994E-02   6.83066994E-02
 vertex  0.924866021       6.57614693E-02   6.57614693E-02
 endloop
 endfacet
 facet normal   0.00000000      0.707106829     -0.707106829    
 outer loop
 vertex  0.885178387       6.84973821E-02   6.84973821E-02
 vertex  0.885464013       6.94179684E-02   6.94179684E-02
 vertex  0.887458980       6.97061568E-02   6.97061568E-02
 endloop
 endfacet
 facet normal -0.599422872      0.590025604      0.540889978    
 outer loop
 vertex  0.885178387       6.84973821E-02   6.84973821E-02
 vertex  0.887458980       6.97061568E-02   6.97061568E-02
 vertex  0.886683822       7.02812970E-02   6.82196468E-02
 endloop
 endfacet
 facet normal  -5.72009906E-02  0.920702577      0.386050105    
 outer loop
 vertex  0.886683822       7.02812970E-02   6.82196468E-02
 vertex  0.887458980       6.97061568E-02   6.97061568E-02
 vertex  0.890752971       6.98503479E-02   6.98503479E-02
 endloop
 endfacet
 facet normal -0.190457195      0.721332729      0.665886819    
 outer loop
 vertex  0.886683822       7.02812970E-02   6.82196468E-02
 vertex  0.890752971       6.98503479E-02   6.98503479E-02
 vertex  0.890296400       7.09654018E-02   6.85118735E-02
 endloop
 endfacet
 facet normal  -2.18446907E-02  0.764459610      0.644301414    
 outer loop
 vertex  0.890296400       7.09654018E-02   6.85118735E-02
 vertex  0.890752971       6.98503479E-02   6.98503479E-02
 vertex  0.895594716       6.99254274E-02   6.99254274E-02
 endloop
 endfacet
 facet normal  -3.28857116E-02  0.742233694      0.669333816    
 outer loop
 vertex  0.890296400       7.09654018E-02   6.85118735E-02
 vertex  0.895594716       6.99254274E-02   6.99254274E-02
 vertex  0.895338416       7.10685477E-02   6.86452165E-02
 endloop
 endfacet
 facet normal   3.82864499E-03  0.746293306      0.665606201    
 outer loop
 vertex  0.895338416       7.10685477E-02   6.86452165E-02
 vertex  0.895594716       6.99254274E-02   6.99254274E-02
 vertex  0.901783884       6.99086487E-02   6.99086487E-02
 endloop
 endfacet
 facet normal   3.17686610E-03  0.744662285      0.667433918    
 outer loop
 vertex  0.895338416       7.10685477E-02   6.86452165E-02
 vertex  0.901783884       6.99086487E-02   6.99086487E-02
 vertex  0.901656330       7.10318834E-02   6.86560497E-02
 endloop
 endfacet
 facet normal   1.99687798E-02  0.745366693      0.666355610    
 outer loop
 vertex  0.901656330       7.10318834E-02   6.86560497E-02
 vertex  0.901783884       6.99086487E-02   6.99086487E-02
 vertex  0.908442080       6.98144734E-02   6.98144734E-02
 endloop
 endfacet
 facet normal   2.46662796E-02  0.757852077      0.651960015    
 outer loop
 vertex  0.901656330       7.10318834E-02   6.86560497E-02
 vertex  0.908442080       6.98144734E-02   6.98144734E-02
 vertex  0.908408284       7.08884671E-02   6.85672984E-02
 endloop
 endfacet
 facet normal   2.98675708E-02  0.757814229      0.651786387    
 outer loop
 vertex  0.908408284       7.08884671E-02   6.85672984E-02
 vertex  0.908442080       6.98144734E-02   6.98144734E-02
 vertex  0.914374173       6.96887672E-02   6.96887672E-02
 endloop
 endfacet
 facet normal   5.54919913E-02  0.815060198      0.576712728    
 outer loop
 vertex  0.908408284       7.08884671E-02   6.85672984E-02
 vertex  0.914374173       6.96887672E-02   6.96887672E-02
 vertex  0.914412379       7.05945119E-02   6.84050173E-02
 endloop
 endfacet
 facet normal   3.54071818E-02  0.816089094      0.576840520    
 outer loop
 vertex  0.914412379       7.05945119E-02   6.84050173E-02
 vertex  0.914374173       6.96887672E-02   6.96887672E-02
 vertex  0.918860078       6.95747435E-02   6.95747435E-02
 endloop
 endfacet
 facet normal  0.145533800      0.950328708      0.275127798    
 outer loop
 vertex  0.914412379       7.05945119E-02   6.84050173E-02
 vertex  0.918860078       6.95747435E-02   6.95747435E-02
 vertex  0.918919981       6.99379370E-02   6.82885423E-02
 endloop
 endfacet
 facet normal   3.50721106E-02  0.961346328      0.273099512    
 outer loop
 vertex  0.918919981       6.99379370E-02   6.82885423E-02
 vertex  0.918860078       6.95747435E-02   6.95747435E-02
 vertex  0.921840310       6.94900826E-02   6.94900826E-02
 endloop
 endfacet
 facet normal  0.223237902      0.956870496     -0.185913101    
 outer loop
 vertex  0.918919981       6.99379370E-02   6.82885423E-02
 vertex  0.921840310       6.94900826E-02   6.94900826E-02
 vertex  0.921912014       6.92321137E-02   6.82484135E-02
 endloop
 endfacet
 facet normal   2.36737300E-02  0.979089022     -0.202050000    
 outer loop
 vertex  0.921912014       6.92321137E-02   6.82484135E-02
 vertex  0.921840310       6.94900826E-02   6.94900826E-02
 vertex  0.923654497       6.94347993E-02   6.94347993E-02
 endloop
 endfacet
 facet normal  0.219379202      0.855831325     -0.468428701    
 outer loop
 vertex  0.921912014       6.92321137E-02   6.82484135E-02
 vertex  0.923654497       6.94347993E-02   6.94347993E-02
 vertex  0.923815906       6.87169135E-02   6.81987926E-02
 endloop
 endfacet
 facet normal   3.26872095E-02  0.866112173     -0.498779714    
 outer loop
 vertex  0.923815906       6.87169135E-02   6.81987926E-02
 vertex  0.923654497       6.94347993E-02   6.94347993E-02
 vertex  0.924684107       6.93431795E-02   6.93431795E-02
 endloop
 endfacet
 facet normal  0.338854700      0.693010628     -0.636328280    
 outer loop
 vertex  0.923815906       6.87169135E-02   6.81987926E-02
 vertex  0.924684107       6.93431795E-02   6.93431795E-02
 vertex  0.924857497       6.83066994E-02   6.83066994E-02
 endloop
 endfacet
 endsolid
